<svg xmlns="http://www.w3.org/2000/svg" width="440.693" height="125.269" viewBox="0 0 330.519 93.952"><path d="M97.379 89.056c.242 2.165 1.537 3.258 3.723 3.258 1.477 0 2.67-.325 3.338-.627l.607 1.476c-.83.385-2.266.79-4.168.79-3.622 0-5.948-2.024-5.948-5.767 0-3.602 2.165-5.705 5.443-5.705 3.318 0 5.118 1.921 5.118 5.584l-8.113.99Zm2.893-5.16c-1.74 0-3.116 1.275-3.055 3.986l5.827-.748c0-2.246-1.092-3.237-2.772-3.237M114.054 93.952c-4.107 0-6.556-3.358-6.556-7.243 0-3.804 2.388-7.244 6.516-7.244 1.517 0 2.63.324 3.399.789l-.647 1.477a4.743 4.743 0 0 0-2.206-.526c-2.914 0-4.269 2.732-4.269 5.484 0 2.792 1.517 5.422 4.31 5.422.97 0 1.598-.222 2.144-.506l.668 1.558c-.688.445-1.922.79-3.359.79ZM124.092 93.952c-3.621 0-5.422-2.469-5.422-5.725s1.8-5.746 5.422-5.746 5.403 2.488 5.403 5.746-1.78 5.725-5.403 5.725Zm0-9.974c-2.185 0-2.832 2.103-2.832 4.228s.688 4.147 2.832 4.147c2.186 0 2.833-2.023 2.833-4.147s-.647-4.228-2.833-4.228M146.373 93.669v-7.81c0-.992-.709-1.902-2.368-1.902-.93 0-1.76.283-2.387.83v8.882h-2.55v-7.871c0-1.092-.91-1.84-2.59-1.84-.95 0-1.639.14-2.165.343v9.368h-2.529v-10.4c1.194-.465 2.772-.789 4.715-.789 2.043 0 3.196.526 3.965 1.254.89-.708 2.206-1.254 4.087-1.254 3.076 0 4.35 1.7 4.35 3.359v7.83h-2.528ZM166.207 93.669v-7.81c0-.992-.709-1.902-2.368-1.902-.93 0-1.76.283-2.387.83v8.882h-2.55v-7.871c0-1.092-.91-1.84-2.59-1.84-.95 0-1.639.14-2.165.343v9.368h-2.529v-10.4c1.194-.465 2.772-.789 4.715-.789 2.043 0 3.196.526 3.965 1.254.89-.708 2.206-1.254 4.087-1.254 3.076 0 4.35 1.7 4.35 3.359v7.83h-2.528ZM173.475 89.056c.243 2.165 1.538 3.258 3.723 3.258 1.477 0 2.67-.325 3.338-.627l.608 1.476c-.83.385-2.267.79-4.168.79-3.623 0-5.95-2.024-5.95-5.767 0-3.602 2.165-5.705 5.444-5.705 3.318 0 5.118 1.921 5.118 5.584l-8.113.99Zm2.893-5.16c-1.74 0-3.116 1.275-3.055 3.986l5.827-.748c0-2.246-1.092-3.237-2.772-3.237M189.563 84.2c-1.011-.283-2.448-.243-3.156.1v9.369h-2.53v-10.4c1.255-.505 2.692-.789 5.018-.789.426 0 .952.04 1.215.061l-.547 1.66ZM196.1 93.952c-2.913 0-5.138-2.185-5.138-5.746 0-3.601 2.286-5.725 5.16-5.725 1.477 0 2.467.383 3.033.789l-.566 1.314c-.363-.242-1.012-.525-1.861-.525-2.064 0-3.136 1.638-3.136 4.087 0 2.488 1.234 4.127 3.096 4.127.809 0 1.417-.263 1.86-.546l.629 1.436c-.528.404-1.559.79-3.076.79ZM202.76 89.056c.243 2.165 1.538 3.258 3.723 3.258 1.477 0 2.67-.325 3.338-.627l.608 1.476c-.83.385-2.267.79-4.168.79-3.623 0-5.95-2.024-5.95-5.767 0-3.602 2.166-5.705 5.444-5.705 3.318 0 5.118 1.921 5.118 5.584l-8.113.99Zm2.893-5.16c-1.74 0-3.116 1.275-3.054 3.986l5.826-.748c0-2.246-1.092-3.237-2.772-3.237M222.855 84.18v9.489h-2.528v-9.49h-1.66v-1.415h1.66v-1.376c0-2.186 1.477-3.622 4.168-3.622.344 0 .667.02.667.02v1.437h-.242c-1.134 0-2.065.627-2.065 2.003v1.538h2.307v1.416h-2.307ZM231.842 93.952c-3.622 0-5.423-2.469-5.423-5.725s1.8-5.746 5.423-5.746 5.402 2.488 5.402 5.746-1.781 5.725-5.402 5.725m0-9.974c-2.186 0-2.833 2.103-2.833 4.228s.688 4.147 2.833 4.147c2.184 0 2.832-2.023 2.832-4.147s-.648-4.228-2.832-4.228M245.219 84.2c-1.012-.283-2.448-.243-3.156.1v9.369h-2.53v-10.4c1.255-.505 2.692-.789 5.018-.789.426 0 .95.04 1.215.061l-.547 1.66M259.729 93.952c-4.108 0-6.556-3.358-6.556-7.243 0-3.804 2.387-7.244 6.515-7.244 1.517 0 2.63.324 3.399.789l-.648 1.477a4.737 4.737 0 0 0-2.205-.526c-2.914 0-4.27 2.732-4.27 5.484 0 2.792 1.518 5.422 4.31 5.422.972 0 1.599-.222 2.146-.506l.667 1.558c-.688.445-1.922.79-3.358.79M269.768 93.952c-3.622 0-5.423-2.469-5.423-5.725s1.8-5.746 5.422-5.746 5.403 2.488 5.403 5.746-1.781 5.725-5.403 5.725m0-9.974c-2.186 0-2.833 2.103-2.833 4.228s.688 4.147 2.832 4.147c2.185 0 2.833-2.023 2.833-4.147s-.648-4.228-2.833-4.228M284.783 93.669v-7.79c0-1.396-1.295-1.922-2.75-1.922-.79 0-1.56.142-2.045.324v9.388h-2.53v-10.4c1.114-.445 2.855-.789 4.716-.789 3.096 0 5.159.971 5.159 3.359v7.83h-2.55ZM294.479 93.912c-2.49 0-3.44-1.477-3.44-2.954V84.18h-1.66v-1.416h1.66v-2.448l2.528-.648v3.096h2.307v1.416h-2.307v6.656c0 .85.547 1.518 1.62 1.518.243 0 .445-.04.687-.101v1.437c-.242.1-.748.222-1.396.222ZM302.573 93.952c-3.48 0-5.119-1.274-5.119-3.358 0-2.934 3.339-3.723 7.305-4.047v-.627c0-1.497-1.114-1.942-2.732-1.942-1.153 0-2.468.303-3.217.627l-.587-1.335c.83-.325 2.387-.79 4.27-.79 2.63 0 4.652.992 4.652 3.784v6.9c-1.01.465-2.609.788-4.572.788m2.186-6.312c-2.935.283-4.897.789-4.897 2.893 0 1.477 1.133 2.104 2.913 2.104.83 0 1.538-.161 1.984-.364V87.64M314.858 93.952c-3.622 0-5.422-2.469-5.422-5.725s1.8-5.746 5.422-5.746 5.403 2.488 5.403 5.746-1.781 5.725-5.403 5.725m0-9.974c-2.185 0-2.833 2.103-2.833 4.228s.688 4.147 2.833 4.147c2.185 0 2.832-2.023 2.832-4.147s-.647-4.228-2.832-4.228M104.352 0v58.019h-9.505V0H0v73h244.39V21.008c3.313-1.513 8.425-2.808 15.41-2.808 13.465 0 21.097 7.489 21.097 19.873 0 12.745-7.992 20.81-20.09 20.81-2.664 0-5.832-.36-7.415-.864V73h77.127V0zM43.823 16.333h9.207v24.785h-9.207V16.333Zm18.503 41.385H34.527L23.186 37.48l8.032-4.5 8.704 15.53h17.01l8.703-15.53 8.032 4.5-11.341 20.237Zm58.226 1.31c-5.257 0-10.225-1.369-12.745-2.81l2.376-5.327c1.8 1.151 5.4 2.303 9.216 2.303 4.609 0 8.281-2.736 8.281-6.049 0-9.216-18.505-4.896-18.505-17.568 0-5.762 5.616-11.377 14.761-11.377 5.185 0 9.001 1.224 11.88 2.808l-2.375 4.824c-1.368-.864-4.176-2.231-7.705-2.231-4.68 0-7.56 2.591-7.56 5.544 0 8.64 18.865 4.824 18.865 17.786 0 6.191-6.408 12.096-16.49 12.096m37.728 0c-12.889 0-19.297-8.786-19.297-20.379S145.39 18.2 158.28 18.2s19.226 8.856 19.226 20.45-6.337 20.377-19.226 20.377Zm43.345-34.78h-8.209v23.69c0 3.024 1.944 5.4 5.76 5.4.864 0 1.585-.144 2.449-.36v5.113c-.864.36-2.665.793-4.969.793-8.856 0-12.241-5.258-12.241-10.514V24.248h-5.904v-5.04h5.904v-8.713l9.001-2.304v11.017h8.209v5.04m19.943 34.78c-12.89 0-19.298-8.786-19.298-20.379S208.68 18.2 221.569 18.2s19.226 8.856 19.226 20.45-6.336 20.377-19.226 20.377Zm83.376-5.834c5.257 0 9.506-1.152 11.881-2.232l2.16 5.257c-2.95 1.368-8.064 2.808-14.833 2.808-12.89 0-21.169-7.2-21.169-20.522 0-12.817 7.704-20.305 19.37-20.305 11.808 0 18.216 6.84 18.216 19.873l-28.874 3.529c.864 7.704 5.473 11.592 13.25 11.592Z" style="fill:#0098ac"/><path d="M158.28 23.528c-7.776 0-10.08 7.489-10.08 15.05s2.448 14.76 10.08 14.76c7.777 0 10.081-7.2 10.081-14.76s-2.304-15.05-10.08-15.05ZM271.753 38.361c0-9.577-3.24-15.193-12.24-15.193-2.737 0-4.682.504-6.121 1.152v28.874c1.224.432 3.312.721 5.328.721 8.353 0 13.033-5.833 13.033-15.554M301.992 23.24c-6.192 0-11.089 4.536-10.872 14.185l20.737-2.664c0-7.992-3.888-11.52-9.865-11.52ZM221.568 23.528c-7.776 0-10.08 7.489-10.08 15.05s2.449 14.76 10.08 14.76c7.777 0 10.081-7.2 10.081-14.76s-2.304-15.05-10.08-15.05Z" style="fill:#0098ac"/></svg>