<?xml version="1.0" encoding="utf-8"?>
<!-- Generator: Adobe Illustrator 14.0.0, SVG Export Plug-In . SVG Version: 6.00 Build 43363)  -->
<!DOCTYPE svg PUBLIC "-//W3C//DTD SVG 1.1//EN" "http://www.w3.org/Graphics/SVG/1.1/DTD/svg11.dtd">
<svg version="1.1"
	 id="svg5967" inkscape:output_extension="org.inkscape.output.svg.inkscape" xmlns:rdf="http://www.w3.org/1999/02/22-rdf-syntax-ns#" xmlns:svg="http://www.w3.org/2000/svg" xmlns:cc="http://creativecommons.org/ns#" xmlns:dc="http://purl.org/dc/elements/1.1/" xmlns:sodipodi="http://sodipodi.sourceforge.net/DTD/sodipodi-0.dtd" sodipodi:version="0.32" sodipodi:docname="policromo_logo.svg" inkscape:version="0.46" xmlns:inkscape="http://www.inkscape.org/namespaces/inkscape"
	 xmlns="http://www.w3.org/2000/svg" xmlns:xlink="http://www.w3.org/1999/xlink" x="0px" y="0px" width="595.275px"
	 height="841.89px" viewBox="0 0 595.275 841.89" enable-background="new 0 0 595.275 841.89" xml:space="preserve">
<defs>
	
	
		<inkscape:perspective  id="perspective5975" inkscape:vp_x="0 : 526.18109 : 1" inkscape:vp_y="0 : 1000 : 0" sodipodi:type="inkscape:persp3d" inkscape:vp_z="744.09448 : 526.18109 : 1" inkscape:persp3d-origin="372.04724 : 350.78739 : 1">
		</inkscape:perspective>
</defs>
<sodipodi:namedview  id="base" inkscape:window-height="979" inkscape:window-y="1149" inkscape:window-x="435" inkscape:cy="963.15022" inkscape:current-layer="layer1" inkscape:document-units="px" pagecolor="#ffffff" bordercolor="#666666" borderopacity="1.0" inkscape:pageopacity="0.0" inkscape:pageshadow="2" inkscape:zoom="0.98994949" inkscape:cx="528.36116" showgrid="false" inkscape:window-width="1308">
	</sodipodi:namedview>
<g id="layer1" inkscape:groupmode="layer" inkscape:label="Ebene 1">
	<g id="g6352" transform="matrix(3.625091,0,0,3.625091,534.5377,1102.5388)">
		<path id="rect6275" fill="none" stroke="#000000" stroke-width="8" stroke-linecap="round" stroke-linejoin="round" d="
			M-114.421-288.959h0.745c3.324,0,6,2.676,6,6v58.962c0,3.324-2.676,6-6,6h-0.745c-3.324,0-6-2.676-6-6v-58.962
			C-120.422-286.283-117.745-288.959-114.421-288.959z"/>
		
			<path id="path6277" sodipodi:nodetypes="ccc" fill="none" stroke="#000000" stroke-width="8" stroke-linecap="round" stroke-linejoin="round" d="
			M-102.016-288.959v70.962h12.745"/>
		
			<path id="path6279" sodipodi:nodetypes="cc" fill="none" stroke="#000000" stroke-width="8" stroke-linecap="round" stroke-linejoin="round" d="
			M-83.61-288.959v70.769"/>
		<path id="rect6281" fill="none" stroke="#000000" stroke-width="8" stroke-linecap="round" stroke-linejoin="round" d="
			M-35.452-288.959h0.745c3.324,0,6,2.676,6,6v58.962c0,3.324-2.676,6-6,6h-0.745c-3.324,0-6-2.676-6-6v-58.962
			C-41.453-286.283-38.776-288.959-35.452-288.959z"/>
		<path id="rect6283" fill="none" stroke="#000000" stroke-width="8" stroke-linecap="round" stroke-linejoin="round" d="
			M0.799-288.959h0.745c3.324,0,6,2.676,6,6v58.962c0,3.324-2.676,6-6,6H0.799c-3.324,0-6-2.676-6-6v-58.962
			C-5.201-286.283-2.525-288.959,0.799-288.959z"/>
		<g id="g6287" transform="matrix(0.9103461,0,0,0.9097736,93.565255,-161.54432)">
			
				<path id="path6289" sodipodi:nodetypes="cccccc" fill="none" stroke="#000000" stroke-width="8" stroke-linecap="round" stroke-linejoin="round" d="
				M-254.556-140.051h7.575c3.173,0,5.728,2.562,5.728,5.744v14.007c0,3.182-2.554,5.744-5.728,5.744h-7.333"/>
			
				<path id="path6291" sodipodi:nodetypes="cc" fill="none" stroke="#000000" stroke-width="8" stroke-linecap="round" stroke-linejoin="round" d="
				M-254.638-140.051v77.787"/>
		</g>
		
			<path id="path6293" sodipodi:nodetypes="cccccccc" fill="none" stroke="#000000" stroke-width="8" stroke-linecap="round" stroke-linejoin="round" d="
			M-64.916-223.455c0,3.024-2.436,5.459-5.462,5.459h-1.821c-3.026,0-5.462-2.435-5.462-5.459V-283.5
			c0-3.024,2.436-5.459,5.462-5.459h1.821c3.026,0,5.462,2.435,5.462,5.459"/>
		
			<path id="path6295" sodipodi:nodetypes="cccccccc" fill="none" stroke="#000000" stroke-width="8" stroke-linecap="round" stroke-linejoin="round" d="
			M-64.916-223.455c0,3.024-2.436,5.459-5.462,5.459h-1.821c-3.026,0-5.462-2.435-5.462-5.459V-283.5
			c0-3.024,2.436-5.459,5.462-5.459h1.821c3.026,0,5.462,2.435,5.462,5.459"/>
		<g id="g6299" transform="matrix(0.9103461,0,0,0.9097736,172.07512,-161.54432)">
			
				<path id="path6301" sodipodi:nodetypes="cccccc" fill="none" stroke="#000000" stroke-width="8" stroke-linecap="round" stroke-linejoin="round" d="
				M-254.556-140.051h7.575c3.173,0,5.728,2.562,5.728,5.744v14.007c0,3.182-2.554,5.744-5.728,5.744h-7.333"/>
			
				<path id="path6303" sodipodi:nodetypes="cc" fill="none" stroke="#000000" stroke-width="8" stroke-linecap="round" stroke-linejoin="round" d="
				M-254.638-140.051v77.787"/>
		</g>
		
			<path id="path6305" sodipodi:nodetypes="cc" fill="none" stroke="#000000" stroke-width="8" stroke-linecap="round" stroke-linejoin="round" d="
			M-51.939-265.829l5.342,47.983"/>
		
			<path id="path6309" sodipodi:nodetypes="cc" fill="none" stroke="#000000" stroke-width="8" stroke-linecap="round" stroke-linejoin="round" d="
			M-10.733-288.959v70.769"/>
		
			<path id="path6311" sodipodi:nodetypes="cc" fill="none" stroke="#000000" stroke-width="8" stroke-linecap="round" stroke-linejoin="round" d="
			M-23.377-288.959v70.769"/>
		
			<path id="path6313" sodipodi:nodetypes="cc" fill="none" stroke="#000000" stroke-width="8" stroke-linecap="round" stroke-linejoin="round" d="
			M-23.377-288.959l6.437,12.067"/>
		
			<path id="path6315" sodipodi:nodetypes="cc" fill="none" stroke="#000000" stroke-width="8" stroke-linecap="round" stroke-linejoin="round" d="
			M-10.733-288.959l-6.207,12.067"/>
	</g>
</g>
</svg>
